<svg xmlns="http://www.w3.org/2000/svg" xmlns:xlink="http://www.w3.org/1999/xlink" contentStyleType="text/css" data-diagram-type="DESCRIPTION" height="1058px" preserveAspectRatio="none" style="width:1434px;height:1058px;background:#FFFFFF;" version="1.1" viewBox="0 0 1434 1058" width="1434px" zoomAndPan="magnify"><title>&#1040;&#1088;&#1093;&#1080;&#1090;&#1077;&#1082;&#1090;&#1091;&#1088;&#1072; &#1089;&#1080;&#1089;&#1090;&#1077;&#1084;&#1099; LLM-&#1072;&#1075;&#1077;&#1085;&#1090;&#1072;</title><defs/><g><g class="title" data-source-line="8"><text fill="#000000" font-family="Arial" font-size="14" font-weight="bold" lengthAdjust="spacing" textLength="272.46" x="573.8335" y="22.9951">&#1040;&#1088;&#1093;&#1080;&#1090;&#1077;&#1082;&#1090;&#1091;&#1088;&#1072; &#1089;&#1080;&#1089;&#1090;&#1077;&#1084;&#1099; LLM-&#1072;&#1075;&#1077;&#1085;&#1090;&#1072;</text></g><!--cluster ??????? ???????--><g class="cluster" data-entity="....... ......." data-source-line="10" data-uid="ent0002" id="cluster_....... ......."><path d="M560.06,43.2969 L700.5786,43.2969 A7.5,7.5 0 0 1 705.5786,48.2969 L712.5786,65.5938 L754.06,65.5938 A5,5 0 0 1 759.06,70.5938 L759.06,275.1869 A5,5 0 0 1 754.06,280.1869 L560.06,280.1869 A5,5 0 0 1 555.06,275.1869 L555.06,48.2969 A5,5 0 0 1 560.06,43.2969" fill="none" style="stroke:#000000;stroke-width:1.5;"/><line style="stroke:#000000;stroke-width:1.5;" x1="555.06" x2="712.5786" y1="65.5938" y2="65.5938"/><text fill="#000000" font-family="Arial" font-size="14" font-weight="bold" lengthAdjust="spacing" textLength="144.5186" x="559.06" y="58.292">&#1042;&#1085;&#1077;&#1096;&#1085;&#1080;&#1081; &#1091;&#1088;&#1086;&#1074;&#1077;&#1085;&#1100;</text></g><!--cluster ????????? ????--><g class="cluster" data-entity="......... ...." data-source-line="15" data-uid="ent0005" id="cluster_......... ...."><path d="M538.06,329.1869 L665.8159,329.1869 A7.5,7.5 0 0 1 670.8159,334.1869 L677.8159,351.4838 L776.06,351.4838 A5,5 0 0 1 781.06,356.4838 L781.06,561.0769 A5,5 0 0 1 776.06,566.0769 L538.06,566.0769 A5,5 0 0 1 533.06,561.0769 L533.06,334.1869 A5,5 0 0 1 538.06,329.1869" fill="none" style="stroke:#000000;stroke-width:1.5;"/><line style="stroke:#000000;stroke-width:1.5;" x1="533.06" x2="677.8159" y1="351.4838" y2="351.4838"/><text fill="#000000" font-family="Arial" font-size="14" font-weight="bold" lengthAdjust="spacing" textLength="131.7559" x="537.06" y="344.182">&#1057;&#1077;&#1088;&#1074;&#1080;&#1089;&#1085;&#1099;&#1081; &#1089;&#1083;&#1086;&#1081;</text></g><!--cluster ???????? ???????--><g class="cluster" data-entity="........ ......." data-source-line="20" data-uid="ent0008" id="cluster_........ ......."><path d="M175.06,775.6669 L323.5561,775.6669 A7.5,7.5 0 0 1 328.5561,780.6669 L335.5561,797.9637 L537.06,797.9637 A5,5 0 0 1 542.06,802.9637 L542.06,884.2669 A5,5 0 0 1 537.06,889.2669 L175.06,889.2669 A5,5 0 0 1 170.06,884.2669 L170.06,780.6669 A5,5 0 0 1 175.06,775.6669" fill="none" style="stroke:#000000;stroke-width:1.5;"/><line style="stroke:#000000;stroke-width:1.5;" x1="170.06" x2="335.5561" y1="797.9637" y2="797.9637"/><text fill="#000000" font-family="Arial" font-size="14" font-weight="bold" lengthAdjust="spacing" textLength="152.4961" x="174.06" y="790.662">&#1054;&#1089;&#1085;&#1086;&#1074;&#1085;&#1099;&#1077; &#1089;&#1077;&#1088;&#1074;&#1080;&#1089;&#1099;</text></g><!--cluster Background Tasks--><g class="cluster" data-entity="Background Tasks" data-source-line="25" data-uid="ent0011" id="cluster_Background Tasks"><path d="M583.06,615.0769 L723.1342,615.0769 A7.5,7.5 0 0 1 728.1342,620.0769 L735.1342,637.3738 L750.06,637.3738 A5,5 0 0 1 755.06,642.3738 L755.06,876.1169 A5,5 0 0 1 750.06,881.1169 L583.06,881.1169 A5,5 0 0 1 578.06,876.1169 L578.06,620.0769 A5,5 0 0 1 583.06,615.0769" fill="#FFFDE7" style="stroke:#000000;stroke-width:1.5;"/><line style="stroke:#000000;stroke-width:1.5;" x1="578.06" x2="735.1342" y1="637.3738" y2="637.3738"/><text fill="#000000" font-family="Arial" font-size="14" font-weight="bold" lengthAdjust="spacing" textLength="144.0742" x="582.06" y="630.072">Background Tasks</text></g><!--cluster ???? ??? Retriever--><g class="cluster" data-entity=".... ... Retriever" data-source-line="30" data-uid="ent0014" id="cluster_.... ... Retriever"><path d="M224.06,938.2669 L374.9623,938.2669 A7.5,7.5 0 0 1 379.9623,943.2669 L386.9623,960.5637 L524.06,960.5637 A5,5 0 0 1 529.06,965.5637 L529.06,1046.8569 A5,5 0 0 1 524.06,1051.8569 L224.06,1051.8569 A5,5 0 0 1 219.06,1046.8569 L219.06,943.2669 A5,5 0 0 1 224.06,938.2669" fill="#F3E5F5" style="stroke:#000000;stroke-width:1.5;"/><line style="stroke:#000000;stroke-width:1.5;" x1="219.06" x2="386.9623" y1="960.5637" y2="960.5637"/><text fill="#000000" font-family="Arial" font-size="14" font-weight="bold" lengthAdjust="spacing" textLength="154.9023" x="223.06" y="953.262">&#1041;&#1072;&#1079;&#1099; &#1076;&#1083;&#1103; Retriever</text></g><!--cluster ?????? ????????????--><g class="cluster" data-entity="...... ............" data-source-line="35" data-uid="ent0017" id="cluster_...... ............"><path d="M892.06,938.2669 L1067.6606,938.2669 A7.5,7.5 0 0 1 1072.6606,943.2669 L1079.6606,960.5637 L1232.06,960.5637 A5,5 0 0 1 1237.06,965.5637 L1237.06,1046.8569 A5,5 0 0 1 1232.06,1051.8569 L892.06,1051.8569 A5,5 0 0 1 887.06,1046.8569 L887.06,943.2669 A5,5 0 0 1 892.06,938.2669" fill="#E8F5E9" style="stroke:#000000;stroke-width:1.5;"/><line style="stroke:#000000;stroke-width:1.5;" x1="887.06" x2="1079.6606" y1="960.5637" y2="960.5637"/><text fill="#000000" font-family="Arial" font-size="14" font-weight="bold" lengthAdjust="spacing" textLength="179.6006" x="891.06" y="953.262">&#1044;&#1072;&#1085;&#1085;&#1099;&#1077; &#1087;&#1086;&#1083;&#1100;&#1079;&#1086;&#1074;&#1072;&#1090;&#1077;&#1083;&#1103;</text></g><!--cluster ??????????? ??????--><g class="cluster" data-entity="........... ......" data-source-line="40" data-uid="ent0020" id="cluster_........... ......"><path d="M784.06,783.8169 L952.4282,783.8169 A7.5,7.5 0 0 1 957.4282,788.8169 L964.4282,806.1138 L1329.06,806.1138 A5,5 0 0 1 1334.06,811.1138 L1334.06,876.1169 A5,5 0 0 1 1329.06,881.1169 L784.06,881.1169 A5,5 0 0 1 779.06,876.1169 L779.06,788.8169 A5,5 0 0 1 784.06,783.8169" fill="none" style="stroke:#000000;stroke-width:1.5;"/><line style="stroke:#000000;stroke-width:1.5;" x1="779.06" x2="964.4282" y1="806.1138" y2="806.1138"/><text fill="#000000" font-family="Arial" font-size="14" font-weight="bold" lengthAdjust="spacing" textLength="172.3682" x="783.06" y="798.812">&#1040;&#1073;&#1089;&#1090;&#1088;&#1072;&#1082;&#1090;&#1085;&#1099;&#1077; &#1084;&#1086;&#1076;&#1091;&#1083;&#1080;</text></g><!--entity U--><g class="entity" data-entity="U" data-source-line="11" data-uid="ent0003" id="entity_U"><rect fill="#F1F1F1" height="46.2969" rx="5" ry="5" style="stroke:#181818;stroke-width:0.5;" width="143.0996" x="571.51" y="78.2969"/><rect fill="#F1F1F1" height="10" style="stroke:#181818;stroke-width:0.5;" width="15" x="694.6096" y="83.2969"/><rect fill="#F1F1F1" height="2" style="stroke:#181818;stroke-width:0.5;" width="4" x="692.6096" y="85.2969"/><rect fill="#F1F1F1" height="2" style="stroke:#181818;stroke-width:0.5;" width="4" x="692.6096" y="89.2969"/><text fill="#000000" font-family="Arial" font-size="14" lengthAdjust="spacing" textLength="103.0996" x="586.51" y="111.292">&#1055;&#1086;&#1083;&#1100;&#1079;&#1086;&#1074;&#1072;&#1090;&#1077;&#1083;&#1100;</text></g><!--entity UI--><g class="entity" data-entity="UI" data-source-line="12" data-uid="ent0004" id="entity_UI"><rect fill="#F1F1F1" height="62.5938" rx="5" ry="5" style="stroke:#181818;stroke-width:0.5;" width="171.79" x="571.17" y="201.5869"/><rect fill="#F1F1F1" height="10" style="stroke:#181818;stroke-width:0.5;" width="15" x="722.96" y="206.5869"/><rect fill="#F1F1F1" height="2" style="stroke:#181818;stroke-width:0.5;" width="4" x="720.96" y="208.5869"/><rect fill="#F1F1F1" height="2" style="stroke:#181818;stroke-width:0.5;" width="4" x="720.96" y="212.5869"/><text fill="#000000" font-family="Arial" font-size="14" lengthAdjust="spacing" textLength="50.1689" x="586.17" y="234.582">Web UI</text><text fill="#000000" font-family="Arial" font-size="14" lengthAdjust="spacing" textLength="131.79" x="586.17" y="250.8789">Streamlit Frontend</text></g><!--entity API--><g class="entity" data-entity="API" data-source-line="16" data-uid="ent0006" id="entity_API"><rect fill="#F1F1F1" height="62.5938" rx="5" ry="5" style="stroke:#181818;stroke-width:0.5;" width="156.5527" x="578.79" y="364.1869"/><rect fill="#F1F1F1" height="10" style="stroke:#181818;stroke-width:0.5;" width="15" x="715.3427" y="369.1869"/><rect fill="#F1F1F1" height="2" style="stroke:#181818;stroke-width:0.5;" width="4" x="713.3427" y="371.1869"/><rect fill="#F1F1F1" height="2" style="stroke:#181818;stroke-width:0.5;" width="4" x="713.3427" y="375.1869"/><text fill="#000000" font-family="Arial" font-size="14" lengthAdjust="spacing" textLength="88.4434" x="593.79" y="397.182">API Gateway</text><text fill="#000000" font-family="Arial" font-size="14" lengthAdjust="spacing" textLength="116.5527" x="593.79" y="413.4789">Backend Service</text></g><!--entity AG--><g class="entity" data-entity="AG" data-source-line="17" data-uid="ent0007" id="entity_AG"><rect fill="#F1F1F1" height="46.2969" rx="5" ry="5" style="stroke:#181818;stroke-width:0.5;" width="216.0732" x="549.03" y="503.7769"/><rect fill="#F1F1F1" height="10" style="stroke:#181818;stroke-width:0.5;" width="15" x="745.1032" y="508.7769"/><rect fill="#F1F1F1" height="2" style="stroke:#181818;stroke-width:0.5;" width="4" x="743.1032" y="510.7769"/><rect fill="#F1F1F1" height="2" style="stroke:#181818;stroke-width:0.5;" width="4" x="743.1032" y="514.7769"/><text fill="#000000" font-family="Arial" font-size="14" lengthAdjust="spacing" textLength="176.0732" x="564.03" y="536.772">LLM Agent / Orchestrator</text></g><!--entity LLM--><g class="entity" data-entity="LLM" data-source-line="21" data-uid="ent0009" id="entity_LLM"><rect fill="#F1F1F1" height="62.5938" rx="5" ry="5" style="stroke:#181818;stroke-width:0.5;" width="144.7949" x="185.67" y="810.6669"/><rect fill="#F1F1F1" height="10" style="stroke:#181818;stroke-width:0.5;" width="15" x="310.4649" y="815.6669"/><rect fill="#F1F1F1" height="2" style="stroke:#181818;stroke-width:0.5;" width="4" x="308.4649" y="817.6669"/><rect fill="#F1F1F1" height="2" style="stroke:#181818;stroke-width:0.5;" width="4" x="308.4649" y="821.6669"/><text fill="#000000" font-family="Arial" font-size="14" lengthAdjust="spacing" textLength="83.8701" x="200.67" y="843.662">LLM Service</text><text fill="#000000" font-family="Arial" font-size="14" lengthAdjust="spacing" textLength="104.7949" x="200.67" y="859.9589">Local / Remote</text></g><!--entity RET--><g class="entity" data-entity="RET" data-source-line="22" data-uid="ent0010" id="entity_RET"><rect fill="#F1F1F1" height="46.2969" rx="5" ry="5" style="stroke:#181818;stroke-width:0.5;" width="160.9346" x="365.6" y="818.8169"/><rect fill="#F1F1F1" height="10" style="stroke:#181818;stroke-width:0.5;" width="15" x="506.5346" y="823.8169"/><rect fill="#F1F1F1" height="2" style="stroke:#181818;stroke-width:0.5;" width="4" x="504.5346" y="825.8169"/><rect fill="#F1F1F1" height="2" style="stroke:#181818;stroke-width:0.5;" width="4" x="504.5346" y="829.8169"/><text fill="#000000" font-family="Arial" font-size="14" lengthAdjust="spacing" textLength="120.9346" x="380.6" y="851.812">Retriever Service</text></g><!--entity MQ--><g class="entity" data-entity="MQ" data-source-line="26" data-uid="ent0012" id="entity_MQ"><rect fill="#F1F1F1" height="62.5938" rx="5" ry="5" style="stroke:#181818;stroke-width:0.5;" width="122.9746" x="595.58" y="650.0769"/><rect fill="#F1F1F1" height="10" style="stroke:#181818;stroke-width:0.5;" width="15" x="698.5546" y="655.0769"/><rect fill="#F1F1F1" height="2" style="stroke:#181818;stroke-width:0.5;" width="4" x="696.5546" y="657.0769"/><rect fill="#F1F1F1" height="2" style="stroke:#181818;stroke-width:0.5;" width="4" x="696.5546" y="661.0769"/><text fill="#000000" font-family="Arial" font-size="14" lengthAdjust="spacing" textLength="82.9746" x="610.58" y="683.072">Task Queue</text><text fill="#000000" font-family="Arial" font-size="14" lengthAdjust="spacing" textLength="68.5576" x="610.58" y="699.3689">RabbitMQ</text></g><!--entity WP--><g class="entity" data-entity="WP" data-source-line="27" data-uid="ent0013" id="entity_WP"><rect fill="#F1F1F1" height="46.2969" rx="5" ry="5" style="stroke:#181818;stroke-width:0.5;" width="124.5537" x="593.79" y="818.8169"/><rect fill="#F1F1F1" height="10" style="stroke:#181818;stroke-width:0.5;" width="15" x="698.3437" y="823.8169"/><rect fill="#F1F1F1" height="2" style="stroke:#181818;stroke-width:0.5;" width="4" x="696.3437" y="825.8169"/><rect fill="#F1F1F1" height="2" style="stroke:#181818;stroke-width:0.5;" width="4" x="696.3437" y="829.8169"/><text fill="#000000" font-family="Arial" font-size="14" lengthAdjust="spacing" textLength="84.5537" x="608.79" y="851.812">Worker Pool</text></g><!--entity VDB--><g class="entity" data-entity="VDB" data-source-line="31" data-uid="ent0015" id="entity_VDB"><rect fill="#F1F1F1" height="62.5938" rx="5" ry="5" style="stroke:#181818;stroke-width:0.5;" width="110.5332" x="402.8" y="973.2669"/><rect fill="#F1F1F1" height="10" style="stroke:#181818;stroke-width:0.5;" width="15" x="493.3332" y="978.2669"/><rect fill="#F1F1F1" height="2" style="stroke:#181818;stroke-width:0.5;" width="4" x="491.3332" y="980.2669"/><rect fill="#F1F1F1" height="2" style="stroke:#181818;stroke-width:0.5;" width="4" x="491.3332" y="984.2669"/><text fill="#000000" font-family="Arial" font-size="14" lengthAdjust="spacing" textLength="70.5332" x="417.8" y="1006.262">Vector DB</text><text fill="#000000" font-family="Arial" font-size="14" lengthAdjust="spacing" textLength="39.5322" x="417.8" y="1022.5589">FAISS</text></g><!--entity IDX--><g class="entity" data-entity="IDX" data-source-line="32" data-uid="ent0016" id="entity_IDX"><rect fill="#F1F1F1" height="46.2969" rx="5" ry="5" style="stroke:#181818;stroke-width:0.5;" width="132.4971" x="234.82" y="981.4069"/><rect fill="#F1F1F1" height="10" style="stroke:#181818;stroke-width:0.5;" width="15" x="347.3171" y="986.4069"/><rect fill="#F1F1F1" height="2" style="stroke:#181818;stroke-width:0.5;" width="4" x="345.3171" y="988.4069"/><rect fill="#F1F1F1" height="2" style="stroke:#181818;stroke-width:0.5;" width="4" x="345.3171" y="992.4069"/><text fill="#000000" font-family="Arial" font-size="14" lengthAdjust="spacing" textLength="92.4971" x="249.82" y="1014.402">Elasticsearch</text></g><!--entity DB--><g class="entity" data-entity="DB" data-source-line="36" data-uid="ent0018" id="entity_DB"><rect fill="#F1F1F1" height="62.5938" rx="5" ry="5" style="stroke:#181818;stroke-width:0.5;" width="131.1367" x="1089.5" y="973.2669"/><rect fill="#F1F1F1" height="10" style="stroke:#181818;stroke-width:0.5;" width="15" x="1200.6367" y="978.2669"/><rect fill="#F1F1F1" height="2" style="stroke:#181818;stroke-width:0.5;" width="4" x="1198.6367" y="980.2669"/><rect fill="#F1F1F1" height="2" style="stroke:#181818;stroke-width:0.5;" width="4" x="1198.6367" y="984.2669"/><text fill="#000000" font-family="Arial" font-size="14" lengthAdjust="spacing" textLength="91.1367" x="1104.5" y="1006.262">User Storage</text><text fill="#000000" font-family="Arial" font-size="14" lengthAdjust="spacing" textLength="80.7529" x="1104.5" y="1022.5589">PostgreSQL</text></g><!--entity FS--><g class="entity" data-entity="FS" data-source-line="37" data-uid="ent0019" id="entity_FS"><rect fill="#F1F1F1" height="62.5938" rx="5" ry="5" style="stroke:#181818;stroke-width:0.5;" width="151.5283" x="903.3" y="973.2669"/><rect fill="#F1F1F1" height="10" style="stroke:#181818;stroke-width:0.5;" width="15" x="1034.8283" y="978.2669"/><rect fill="#F1F1F1" height="2" style="stroke:#181818;stroke-width:0.5;" width="4" x="1032.8283" y="980.2669"/><rect fill="#F1F1F1" height="2" style="stroke:#181818;stroke-width:0.5;" width="4" x="1032.8283" y="984.2669"/><text fill="#000000" font-family="Arial" font-size="14" lengthAdjust="spacing" textLength="92.6543" x="918.3" y="1006.262">Data Storage</text><text fill="#000000" font-family="Arial" font-size="14" lengthAdjust="spacing" textLength="111.5283" x="918.3" y="1022.5589">MinIO / Local FS</text></g><!--entity SRC--><g class="entity" data-entity="SRC" data-source-line="41" data-uid="ent0021" id="entity_SRC"><rect fill="#F1F1F1" height="46.2969" rx="5" ry="5" style="stroke:#181818;stroke-width:0.5;" width="245.9258" x="795.1" y="818.8169"/><rect fill="#F1F1F1" height="10" style="stroke:#181818;stroke-width:0.5;" width="15" x="1021.0258" y="823.8169"/><rect fill="#F1F1F1" height="2" style="stroke:#181818;stroke-width:0.5;" width="4" x="1019.0258" y="825.8169"/><rect fill="#F1F1F1" height="2" style="stroke:#181818;stroke-width:0.5;" width="4" x="1019.0258" y="829.8169"/><text fill="#000000" font-family="Arial" font-size="14" lengthAdjust="spacing" textLength="205.9258" x="810.1" y="851.812">&#1052;&#1086;&#1076;&#1091;&#1083;&#1100; &#1080;&#1089;&#1090;&#1086;&#1095;&#1085;&#1080;&#1082;&#1086;&#1074; &#1076;&#1072;&#1085;&#1085;&#1099;&#1093;</text></g><!--entity FUNC--><g class="entity" data-entity="FUNC" data-source-line="42" data-uid="ent0022" id="entity_FUNC"><rect fill="#F1F1F1" height="46.2969" rx="5" ry="5" style="stroke:#181818;stroke-width:0.5;" width="242.918" x="1075.6" y="818.8169"/><rect fill="#F1F1F1" height="10" style="stroke:#181818;stroke-width:0.5;" width="15" x="1298.518" y="823.8169"/><rect fill="#F1F1F1" height="2" style="stroke:#181818;stroke-width:0.5;" width="4" x="1296.518" y="825.8169"/><rect fill="#F1F1F1" height="2" style="stroke:#181818;stroke-width:0.5;" width="4" x="1296.518" y="829.8169"/><text fill="#000000" font-family="Arial" font-size="14" lengthAdjust="spacing" textLength="202.918" x="1090.6" y="851.812">&#1052;&#1086;&#1076;&#1091;&#1083;&#1100; &#1092;&#1091;&#1085;&#1082;&#1094;&#1080;&#1086;&#1085;&#1072;&#1083;&#1100;&#1085;&#1086;&#1089;&#1090;&#1080;</text></g><!--link U to UI--><g class="link" data-entity-1="U" data-entity-2="UI" data-source-line="46" data-uid="lnk23" id="link_U_UI"><path d="M645.5,124.9869 C647.79,146.1369 650.5856,171.9716 653.1156,195.3916" fill="none" id="U-to-UI" style="stroke:#181818;stroke-width:1;"/><polygon fill="#181818" points="653.76,201.3569,656.7702,191.9793,653.223,196.3858,648.8165,192.8385,653.76,201.3569" style="stroke:#181818;stroke-width:1;"/><text fill="#000000" font-family="Arial" font-size="13" lengthAdjust="spacing" textLength="119.2217" x="651.48" y="167.6538">HTTP / WebSocket</text></g><!--link UI to API--><g class="link" data-entity-1="UI" data-entity-2="API" data-source-line="47" data-uid="lnk24" id="link_UI_API"><path d="M657.06,264.4769 C657.06,292.9569 657.06,329.2069 657.06,357.7369" fill="none" id="UI-to-API" style="stroke:#181818;stroke-width:1;"/><polygon fill="#181818" points="657.06,363.7369,661.06,354.7369,657.06,358.7369,653.06,354.7369,657.06,363.7369" style="stroke:#181818;stroke-width:1;"/><text fill="#000000" font-family="Arial" font-size="13" lengthAdjust="spacing" textLength="55.7388" x="658.06" y="309.2538">API Calls</text></g><!--link API to AG--><g class="link" data-entity-1="API" data-entity-2="AG" data-source-line="48" data-uid="lnk25" id="link_API_AG"><path d="M657.06,427.1569 C657.06,450.6369 657.06,476.4669 657.06,497.5669" fill="none" id="API-to-AG" style="stroke:#181818;stroke-width:1;"/><polygon fill="#181818" points="657.06,503.5669,661.06,494.5669,657.06,498.5669,653.06,494.5669,657.06,503.5669" style="stroke:#181818;stroke-width:1;"/><text fill="#000000" font-family="Arial" font-size="13" lengthAdjust="spacing" textLength="53.3901" x="658.06" y="469.8438">Request</text></g><!--link AG to LLM--><g class="link" data-entity-1="AG" data-entity-2="LLM" data-source-line="50" data-uid="lnk26" id="link_AG_LLM"><path d="M548.55,534.1669 C487.34,542.8269 412.96,562.5869 361.06,607.0769 C298.24,660.9269 273.3939,754.5512 263.9339,804.6212" fill="none" id="AG-to-LLM" style="stroke:#181818;stroke-width:1;"/><polygon fill="#181818" points="262.82,810.5169,268.4213,802.4159,263.7483,805.6038,260.5604,800.9307,262.82,810.5169" style="stroke:#181818;stroke-width:1;"/><text fill="#000000" font-family="Arial" font-size="13" lengthAdjust="spacing" textLength="60.874" x="362.06" y="685.9438">LLM Calls</text></g><!--link AG to RET--><g class="link" data-entity-1="AG" data-entity-2="RET" data-source-line="51" data-uid="lnk27" id="link_AG_RET"><path d="M548.74,548.8269 C516.16,560.5269 483.63,578.7469 463.06,607.0769 C416.42,671.3169 429.7207,767.5284 439.3007,812.5284" fill="none" id="AG-to-RET" style="stroke:#181818;stroke-width:1;"/><polygon fill="#181818" points="440.55,818.3969,442.5883,808.7613,439.5089,813.5065,434.7637,810.427,440.55,818.3969" style="stroke:#181818;stroke-width:1;"/><text fill="#000000" font-family="Arial" font-size="13" lengthAdjust="spacing" textLength="113.6421" x="464.06" y="685.9438">Context Retrieval</text></g><!--link AG to SRC--><g class="link" data-entity-1="AG" data-entity-2="SRC" data-source-line="52" data-uid="lnk28" id="link_AG_SRC"><path d="M702.32,550.3069 C717.25,558.9769 733.28,569.7969 746.06,582.0769 C823.1,656.1069 881.2158,765.1009 904.7958,813.1309" fill="none" id="AG-to-SRC" style="stroke:#181818;stroke-width:1;"/><polygon fill="#181818" points="907.44,818.5169,907.0643,808.6752,905.2365,814.0286,899.8831,812.2008,907.44,818.5169" style="stroke:#181818;stroke-width:1;"/><text fill="#000000" font-family="Arial" font-size="13" lengthAdjust="spacing" textLength="71.1318" x="848.27" y="685.9438">Fetch Data</text></g><!--link AG to FUNC--><g class="link" data-entity-1="AG" data-entity-2="FUNC" data-source-line="53" data-uid="lnk29" id="link_AG_FUNC"><path d="M765.47,548.2769 C816.8,560.6869 877.74,579.5869 928.06,607.0769 C1034.79,665.3669 1132.1681,767.4975 1173.5281,813.9075" fill="none" id="AG-to-FUNC" style="stroke:#181818;stroke-width:1;"/><polygon fill="#181818" points="1177.52,818.3869,1174.5183,809.0066,1174.1934,814.6541,1168.5459,814.3292,1177.52,818.3869" style="stroke:#181818;stroke-width:1;"/><text fill="#000000" font-family="Arial" font-size="13" lengthAdjust="spacing" textLength="106.6406" x="1072.39" y="685.9438">Execute Feature</text></g><!--link AG to MQ--><g class="link" data-entity-1="AG" data-entity-2="MQ" data-source-line="54" data-uid="lnk30" id="link_AG_MQ"><path d="M657.06,550.4169 C657.06,576.6769 657.06,614.2369 657.06,643.6069" fill="none" id="AG-to-MQ" style="stroke:#181818;stroke-width:1;"/><polygon fill="#181818" points="657.06,649.6069,661.06,640.6069,657.06,644.6069,653.06,640.6069,657.06,649.6069" style="stroke:#181818;stroke-width:1;"/><text fill="#000000" font-family="Arial" font-size="13" lengthAdjust="spacing" textLength="79.8599" x="658.06" y="595.1438">Async Tasks</text></g><!--link RET to VDB--><g class="link" data-entity-1="RET" data-entity-2="VDB" data-source-line="56" data-uid="lnk31" id="link_RET_VDB"><path d="M444.72,865.4469 C444.08,877.2869 443.38,892.0569 443.06,905.2669 C442.88,912.8169 442.38,914.7369 443.06,922.2669 C444.61,939.1269 446.699,951.8404 449.819,966.9804" fill="none" id="RET-to-VDB" style="stroke:#181818;stroke-width:1;"/><polygon fill="#181818" points="451.03,972.8569,453.1312,963.2348,450.0208,967.9598,445.2958,964.8494,451.03,972.8569" style="stroke:#181818;stroke-width:1;"/><text fill="#000000" font-family="Arial" font-size="13" lengthAdjust="spacing" textLength="91.5142" x="444.06" y="918.3338">Vector Search</text></g><!--link RET to IDX--><g class="link" data-entity-1="RET" data-entity-2="IDX" data-source-line="57" data-uid="lnk32" id="link_RET_IDX"><path d="M414.64,865.4669 C396.2,877.3369 371.89,890.7469 348.06,897.2669 C332.73,901.4569 73.14,893.8669 62.06,905.2669 C6,962.9169 139.6568,987.3638 228.4168,997.2338" fill="none" id="RET-to-IDX" style="stroke:#181818;stroke-width:1;"/><polygon fill="#181818" points="234.38,997.8969,225.8772,992.9267,229.4106,997.3443,224.9931,1000.8777,234.38,997.8969" style="stroke:#181818;stroke-width:1;"/><text fill="#000000" font-family="Arial" font-size="13" lengthAdjust="spacing" textLength="77.8096" x="63.06" y="918.3338">Text Search</text></g><!--link SRC to FS--><g class="link" data-entity-1="SRC" data-entity-2="FS" data-source-line="59" data-uid="lnk33" id="link_SRC_FS"><path d="M926.55,865.2969 C937.18,893.3069 953.3498,935.8577 965.2898,967.2977" fill="none" id="SRC-to-FS" style="stroke:#181818;stroke-width:1;"/><polygon fill="#181818" points="967.42,972.9069,967.9641,963.0731,965.6448,968.2326,960.4853,965.9133,967.42,972.9069" style="stroke:#181818;stroke-width:1;"/><text fill="#000000" font-family="Arial" font-size="13" lengthAdjust="spacing" textLength="68.25" x="947.73" y="918.3338">Store Files</text></g><!--link SRC to VDB--><g class="link" data-entity-1="SRC" data-entity-2="VDB" data-source-line="60" data-uid="lnk34" id="link_SRC_VDB"><path d="M856.71,865.4869 C826.39,876.0769 789.1,888.3169 755.06,897.2669 C737.11,901.9869 731.56,899.0669 714.06,905.2669 C698.88,910.6369 696.78,915.7269 682.06,922.2669 C625.92,947.2169 565.2345,968.6866 519.3845,983.9066" fill="none" id="SRC-to-VDB" style="stroke:#181818;stroke-width:1;"/><polygon fill="#181818" points="513.69,985.7969,523.4919,986.7577,518.4354,984.2216,520.9715,979.1651,513.69,985.7969" style="stroke:#181818;stroke-width:1;"/><text fill="#000000" font-family="Arial" font-size="13" lengthAdjust="spacing" textLength="91.8506" x="715.06" y="918.3338">Index Content</text></g><!--link SRC to IDX--><g class="link" data-entity-1="SRC" data-entity-2="IDX" data-source-line="61" data-uid="lnk35" id="link_SRC_IDX"><path d="M864.05,865.5369 C832.8,877.4269 792.4,890.8369 755.06,897.2669 C732.45,901.1569 361.04,892.3569 342.06,905.2669 C316.99,922.3269 308.1817,951.9444 304.3917,975.2844" fill="none" id="SRC-to-IDX" style="stroke:#181818;stroke-width:1;"/><polygon fill="#181818" points="303.43,981.2069,308.8208,972.9644,304.2314,976.2715,300.9243,971.6821,303.43,981.2069" style="stroke:#181818;stroke-width:1;"/><text fill="#000000" font-family="Arial" font-size="13" lengthAdjust="spacing" textLength="91.8506" x="343.06" y="918.3338">Index Content</text></g><!--link FUNC to DB--><g class="link" data-entity-1="FUNC" data-entity-2="DB" data-source-line="63" data-uid="lnk36" id="link_FUNC_DB"><path d="M1296.45,865.5469 C1328.91,878.0269 1352.82,896.3769 1336.06,922.2669 C1310.71,961.4469 1267.2865,980.4154 1226.5665,991.0154" fill="none" id="FUNC-to-DB" style="stroke:#181818;stroke-width:1;"/><polygon fill="#181818" points="1220.76,992.5269,1230.4774,994.1306,1225.5987,991.2673,1228.4621,986.3886,1220.76,992.5269" style="stroke:#181818;stroke-width:1;"/><text fill="#000000" font-family="Arial" font-size="13" lengthAdjust="spacing" textLength="83.5669" x="1342.56" y="918.3338">Save Results</text></g><!--link FUNC to DB--><g class="link" data-entity-1="FUNC" data-entity-2="DB" data-source-line="64" data-uid="lnk37" id="link_FUNC_DB"><path d="M1197.8,865.5169 C1197.8,881.5669 1196.75,903.5269 1192.06,922.2669 C1187.7,939.7169 1182.3849,952.6861 1174.9349,967.5061" fill="none" id="FUNC-to-DB-1" style="stroke:#181818;stroke-width:1;"/><polygon fill="#181818" points="1172.24,972.8669,1179.8561,966.6223,1174.4857,968.3996,1172.7084,963.0292,1172.24,972.8669" style="stroke:#181818;stroke-width:1;"/><text fill="#000000" font-family="Arial" font-size="13" lengthAdjust="spacing" textLength="102.1846" x="1195.99" y="918.3338">Read User Data</text></g><!--link MQ to WP--><g class="link" data-entity-1="MQ" data-entity-2="WP" data-source-line="66" data-uid="lnk38" id="link_MQ_WP"><path d="M656.87,712.9469 C656.68,743.9169 656.4191,785.057 656.2391,812.667" fill="none" id="MQ-to-WP" style="stroke:#181818;stroke-width:1;"/><polygon fill="#181818" points="656.2,818.6669,660.2586,809.6931,656.2326,813.667,652.2588,809.641,656.2,818.6669" style="stroke:#181818;stroke-width:1;"/><text fill="#000000" font-family="Arial" font-size="13" lengthAdjust="spacing" textLength="108.7861" x="657.68" y="755.7338">Background Jobs</text></g><!--link WP to FS--><g class="link" data-entity-1="WP" data-entity-2="FS" data-source-line="67" data-uid="lnk39" id="link_WP_FS"><path d="M701.36,865.5269 C724.24,876.2569 752.67,888.5969 779.06,897.2669 C794.64,902.3769 799.84,899.1969 815.06,905.2669 C838.58,914.6369 887.2099,944.5026 926.7899,969.7226" fill="none" id="WP-to-FS" style="stroke:#181818;stroke-width:1;"/><polygon fill="#181818" points="931.85,972.9469,926.4094,964.7371,927.6333,970.26,922.1104,971.4839,931.85,972.9469" style="stroke:#181818;stroke-width:1;"/><text fill="#000000" font-family="Arial" font-size="13" lengthAdjust="spacing" textLength="83.4336" x="848.28" y="918.3338">Process Files</text></g><!--link WP to VDB--><g class="link" data-entity-1="WP" data-entity-2="VDB" data-source-line="68" data-uid="lnk40" id="link_WP_VDB"><path d="M626.62,865.5169 C611.43,877.2569 592.65,891.8969 576.06,905.2669 C548.34,927.5969 522.0298,949.5025 498.8098,969.0525" fill="none" id="WP-to-VDB" style="stroke:#181818;stroke-width:1;"/><polygon fill="#181818" points="494.22,972.9169,503.681,970.1802,498.0449,969.6966,498.5285,964.0604,494.22,972.9169" style="stroke:#181818;stroke-width:1;"/><text fill="#000000" font-family="Arial" font-size="13" lengthAdjust="spacing" textLength="100.4199" x="577.06" y="918.3338">Update Vectors</text></g><!--link WP to IDX--><g class="link" data-entity-1="WP" data-entity-2="IDX" data-source-line="69" data-uid="lnk41" id="link_WP_IDX"><path d="M619.03,865.5269 C597.42,877.4169 569.15,890.8269 542.06,897.2669 C522.55,901.8969 195.09,890.9269 181.06,905.2669 C153.19,933.7569 192.1778,959.7185 234.6478,978.6085" fill="none" id="WP-to-IDX" style="stroke:#181818;stroke-width:1;"/><polygon fill="#181818" points="240.13,981.0469,233.5323,973.7345,235.5615,979.0149,230.2811,981.0441,240.13,981.0469" style="stroke:#181818;stroke-width:1;"/><text fill="#000000" font-family="Arial" font-size="13" lengthAdjust="spacing" textLength="87.2295" x="182.06" y="918.3338">Update Index</text></g><!--link WP to DB--><g class="link" data-entity-1="WP" data-entity-2="DB" data-source-line="70" data-uid="lnk42" id="link_WP_DB"><path d="M696.54,865.5569 C719.9,877.3669 750.27,890.6969 779.06,897.2669 C832.39,909.4169 972.22,891.1669 1025.06,905.2669 C1066.35,916.2769 1099.9621,944.21 1124.0321,968.79" fill="none" id="WP-to-DB" style="stroke:#181818;stroke-width:1;"/><polygon fill="#181818" points="1128.23,973.0769,1124.791,963.8479,1124.7317,969.5045,1119.0752,969.4452,1128.23,973.0769" style="stroke:#181818;stroke-width:1;"/><text fill="#000000" font-family="Arial" font-size="13" lengthAdjust="spacing" textLength="100.5977" x="1062.6" y="918.3338">Write Metadata</text></g><!--SRC=[TLLRR-D457xthnZA0qyLTdDhggLIBdO9Ihf9d3H8X8UfCvjQTUtYcNIxGaZjBWj8hRJB2ecLG23u0mJOQhkNbhym_aUSkIHDtDeFbds-u-yxvymtumz6v84V4jIrQxtAzbRJHbw0AJNelXyUuXWV84Z0au0vKSYsyG51bTZ7mG8UHvDmL8lYaCJ8CXS0ILJ5tlvOfmHHZ3vqv7KhBOf79DOffhmMKkWU7aKF_N2C7k204iDWFWi8ui-Ja-GflqmUyml-DdcSF4bE-1Gbfn0wbS7toHbgDbkhVCh_XTSh24uDun1gmcE2LlWBViKlaX_WVidV8FdzDVz7PfwleAyDXBxWlqFeNNBENqjeAddX_Kk4AUgBZ07PHVt6C7HPJF11u3Fan30i4evKJiFuPb7p3r0y0IQe4MJEXEufVmVaRxHYfTr0MvYHX_ZHC1Jp0oRaalZ8zuXaX0IH1usXofY437sCxiVU7g4inYoALSxMikflGars83GlXEQyZEHCAmj6BJGCcv670w3kaeE8AM70HLgNiDWdHx3UYrLrxTwIvCtAenwc-tH5hdtTBYaj4KET2Pc0L1VlxlgirP4yhOuSQXJlWq0xYW8P7RIN-_aHblGrh2v_1Oln3CrB4Yevk-0KbCeEyM0Yg5uTXawbuRgIQwTU5PWDncE-Hmc6uKcWKVzyMUKdKBdI4-F_tMc4Pw1ehpi5kwmK-rJC1KI1OHYs8yh6CN4xJIcWXEkOuPkKbXysxiESrRmTLQBZBXVodFyjB2tyBPm-A-azbF8gUGBskPpPzTTPA3b7UXzS9zzBXxyLXOk9wQQIfrBBxTPkVPby2mzN8FKTV7SDJrFPEZX8Cbwg8llRDL7cH-YJMnS2dx_WV_6V-SixKAEFLbStOMkW3VHfhzU6zc4NkH5udHaG5Q3O1XloNiD1G0tn9EDR4EwIhoRWTyE0Dn4KpjsGTvsimk192DV4RZncCvF0wQLXw1nWXp1l3ub5cSL5Om3OnyIRC089c4rYCaDR7L4NVHHwojY68MG40iO2I7lEbRwQO-0jm7gY3eqOGbxAkO08Fu2K7n0w1nHV8noHOzL4oEQOubl635cuGEM7BZw2WvrGEBrf2keIF4BIgh9l0teIsA0DsCB6_IpQfGO4vrMsuyWZbEewDQBAx1-EuD3ItSynLQR6PBKpH7uqY7s8jmZ38rb7bfN-v2_vBtTRAVKdaTiWzTUvTw-ojRa9-zHo2eujy9lVpGmphKAfBBOdGdSHWBL45fnWETjCCsZGBXOiqyoa02T82dayfIaqcAzO-VLQ9WKilgImd7MxdARGO2vNB5js9eNmWImMJcAdcEQOeVd2MgcItKgheuTHhkNJ51ghriorUYR1e9rDeB52oR5AcGJrgcp2T4fE9KsWCDCiciLyzXnSJR3cMBUcu2g2V3sVFOCTNO8y-zCC6hIg1Nijcm8sXvgLNRPBQGeDLfrSqHJ7xFy0]--></g></svg>