<svg xmlns="http://www.w3.org/2000/svg" xmlns:xlink="http://www.w3.org/1999/xlink" contentStyleType="text/css" data-diagram-type="DESCRIPTION" height="1021px" preserveAspectRatio="none" style="width:1436px;height:1021px;background:#FFFFFF;" version="1.1" viewBox="0 0 1436 1021" width="1436px" zoomAndPan="magnify"><defs/><g><!--cluster ??????? ???????--><g class="cluster" data-entity="....... ......." data-source-line="8" data-uid="ent0002" id="cluster_....... ......."><path d="M560.06,6 L700.5786,6 A7.5,7.5 0 0 1 705.5786,11 L712.5786,28.2969 L754.06,28.2969 A5,5 0 0 1 759.06,33.2969 L759.06,237.89 A5,5 0 0 1 754.06,242.89 L560.06,242.89 A5,5 0 0 1 555.06,237.89 L555.06,11 A5,5 0 0 1 560.06,6" fill="none" style="stroke:#000000;stroke-width:1.5;"/><line style="stroke:#000000;stroke-width:1.5;" x1="555.06" x2="712.5786" y1="28.2969" y2="28.2969"/><text fill="#000000" font-family="Arial" font-size="14" font-weight="bold" lengthAdjust="spacing" textLength="144.5186" x="559.06" y="20.9951">&#1042;&#1085;&#1077;&#1096;&#1085;&#1080;&#1081; &#1091;&#1088;&#1086;&#1074;&#1077;&#1085;&#1100;</text></g><!--cluster ????????? ????--><g class="cluster" data-entity="......... ...." data-source-line="13" data-uid="ent0005" id="cluster_......... ...."><path d="M538.06,291.89 L665.8159,291.89 A7.5,7.5 0 0 1 670.8159,296.89 L677.8159,314.1869 L776.06,314.1869 A5,5 0 0 1 781.06,319.1869 L781.06,523.78 A5,5 0 0 1 776.06,528.78 L538.06,528.78 A5,5 0 0 1 533.06,523.78 L533.06,296.89 A5,5 0 0 1 538.06,291.89" fill="none" style="stroke:#000000;stroke-width:1.5;"/><line style="stroke:#000000;stroke-width:1.5;" x1="533.06" x2="677.8159" y1="314.1869" y2="314.1869"/><text fill="#000000" font-family="Arial" font-size="14" font-weight="bold" lengthAdjust="spacing" textLength="131.7559" x="537.06" y="306.8851">&#1057;&#1077;&#1088;&#1074;&#1080;&#1089;&#1085;&#1099;&#1081; &#1089;&#1083;&#1086;&#1081;</text></g><!--cluster ???????? ???????--><g class="cluster" data-entity="........ ......." data-source-line="18" data-uid="ent0008" id="cluster_........ ......."><path d="M175.06,738.37 L323.5561,738.37 A7.5,7.5 0 0 1 328.5561,743.37 L335.5561,760.6669 L537.06,760.6669 A5,5 0 0 1 542.06,765.6669 L542.06,846.97 A5,5 0 0 1 537.06,851.97 L175.06,851.97 A5,5 0 0 1 170.06,846.97 L170.06,743.37 A5,5 0 0 1 175.06,738.37" fill="none" style="stroke:#000000;stroke-width:1.5;"/><line style="stroke:#000000;stroke-width:1.5;" x1="170.06" x2="335.5561" y1="760.6669" y2="760.6669"/><text fill="#000000" font-family="Arial" font-size="14" font-weight="bold" lengthAdjust="spacing" textLength="152.4961" x="174.06" y="753.3651">&#1054;&#1089;&#1085;&#1086;&#1074;&#1085;&#1099;&#1077; &#1089;&#1077;&#1088;&#1074;&#1080;&#1089;&#1099;</text></g><!--cluster Background Tasks--><g class="cluster" data-entity="Background Tasks" data-source-line="23" data-uid="ent0011" id="cluster_Background Tasks"><path d="M583.06,577.78 L723.1342,577.78 A7.5,7.5 0 0 1 728.1342,582.78 L735.1342,600.0769 L750.06,600.0769 A5,5 0 0 1 755.06,605.0769 L755.06,838.82 A5,5 0 0 1 750.06,843.82 L583.06,843.82 A5,5 0 0 1 578.06,838.82 L578.06,582.78 A5,5 0 0 1 583.06,577.78" fill="#FFFDE7" style="stroke:#000000;stroke-width:1.5;"/><line style="stroke:#000000;stroke-width:1.5;" x1="578.06" x2="735.1342" y1="600.0769" y2="600.0769"/><text fill="#000000" font-family="Arial" font-size="14" font-weight="bold" lengthAdjust="spacing" textLength="144.0742" x="582.06" y="592.7751">Background Tasks</text></g><!--cluster ???? ??? Retriever--><g class="cluster" data-entity=".... ... Retriever" data-source-line="28" data-uid="ent0014" id="cluster_.... ... Retriever"><path d="M224.06,900.97 L374.9623,900.97 A7.5,7.5 0 0 1 379.9623,905.97 L386.9623,923.2669 L524.06,923.2669 A5,5 0 0 1 529.06,928.2669 L529.06,1009.56 A5,5 0 0 1 524.06,1014.56 L224.06,1014.56 A5,5 0 0 1 219.06,1009.56 L219.06,905.97 A5,5 0 0 1 224.06,900.97" fill="#F3E5F5" style="stroke:#000000;stroke-width:1.5;"/><line style="stroke:#000000;stroke-width:1.5;" x1="219.06" x2="386.9623" y1="923.2669" y2="923.2669"/><text fill="#000000" font-family="Arial" font-size="14" font-weight="bold" lengthAdjust="spacing" textLength="154.9023" x="223.06" y="915.9651">&#1041;&#1072;&#1079;&#1099; &#1076;&#1083;&#1103; Retriever</text></g><!--cluster ?????? ????????????--><g class="cluster" data-entity="...... ............" data-source-line="33" data-uid="ent0017" id="cluster_...... ............"><path d="M892.06,900.97 L1067.6606,900.97 A7.5,7.5 0 0 1 1072.6606,905.97 L1079.6606,923.2669 L1232.06,923.2669 A5,5 0 0 1 1237.06,928.2669 L1237.06,1009.56 A5,5 0 0 1 1232.06,1014.56 L892.06,1014.56 A5,5 0 0 1 887.06,1009.56 L887.06,905.97 A5,5 0 0 1 892.06,900.97" fill="#E8F5E9" style="stroke:#000000;stroke-width:1.5;"/><line style="stroke:#000000;stroke-width:1.5;" x1="887.06" x2="1079.6606" y1="923.2669" y2="923.2669"/><text fill="#000000" font-family="Arial" font-size="14" font-weight="bold" lengthAdjust="spacing" textLength="179.6006" x="891.06" y="915.9651">&#1044;&#1072;&#1085;&#1085;&#1099;&#1077; &#1087;&#1086;&#1083;&#1100;&#1079;&#1086;&#1074;&#1072;&#1090;&#1077;&#1083;&#1103;</text></g><!--cluster ??????????? ??????--><g class="cluster" data-entity="........... ......" data-source-line="38" data-uid="ent0020" id="cluster_........... ......"><path d="M784.06,746.52 L952.4282,746.52 A7.5,7.5 0 0 1 957.4282,751.52 L964.4282,768.8169 L1161.06,768.8169 A5,5 0 0 1 1166.06,773.8169 L1166.06,838.82 A5,5 0 0 1 1161.06,843.82 L784.06,843.82 A5,5 0 0 1 779.06,838.82 L779.06,751.52 A5,5 0 0 1 784.06,746.52" fill="none" style="stroke:#000000;stroke-width:1.5;"/><line style="stroke:#000000;stroke-width:1.5;" x1="779.06" x2="964.4282" y1="768.8169" y2="768.8169"/><text fill="#000000" font-family="Arial" font-size="14" font-weight="bold" lengthAdjust="spacing" textLength="172.3682" x="783.06" y="761.5151">&#1040;&#1073;&#1089;&#1090;&#1088;&#1072;&#1082;&#1090;&#1085;&#1099;&#1077; &#1084;&#1086;&#1076;&#1091;&#1083;&#1080;</text></g><!--entity U--><g class="entity" data-entity="U" data-source-line="9" data-uid="ent0003" id="entity_U"><rect fill="#F1F1F1" height="46.2969" rx="5" ry="5" style="stroke:#181818;stroke-width:0.5;" width="143.0996" x="571.51" y="41"/><rect fill="#F1F1F1" height="10" style="stroke:#181818;stroke-width:0.5;" width="15" x="694.6096" y="46"/><rect fill="#F1F1F1" height="2" style="stroke:#181818;stroke-width:0.5;" width="4" x="692.6096" y="48"/><rect fill="#F1F1F1" height="2" style="stroke:#181818;stroke-width:0.5;" width="4" x="692.6096" y="52"/><text fill="#000000" font-family="Arial" font-size="14" lengthAdjust="spacing" textLength="103.0996" x="586.51" y="73.9951">&#1055;&#1086;&#1083;&#1100;&#1079;&#1086;&#1074;&#1072;&#1090;&#1077;&#1083;&#1100;</text></g><!--entity UI--><g class="entity" data-entity="UI" data-source-line="10" data-uid="ent0004" id="entity_UI"><rect fill="#F1F1F1" height="62.5938" rx="5" ry="5" style="stroke:#181818;stroke-width:0.5;" width="171.79" x="571.17" y="164.29"/><rect fill="#F1F1F1" height="10" style="stroke:#181818;stroke-width:0.5;" width="15" x="722.96" y="169.29"/><rect fill="#F1F1F1" height="2" style="stroke:#181818;stroke-width:0.5;" width="4" x="720.96" y="171.29"/><rect fill="#F1F1F1" height="2" style="stroke:#181818;stroke-width:0.5;" width="4" x="720.96" y="175.29"/><text fill="#000000" font-family="Arial" font-size="14" lengthAdjust="spacing" textLength="50.1689" x="586.17" y="197.2851">Web UI</text><text fill="#000000" font-family="Arial" font-size="14" lengthAdjust="spacing" textLength="131.79" x="586.17" y="213.582">Streamlit Frontend</text></g><!--entity API--><g class="entity" data-entity="API" data-source-line="14" data-uid="ent0006" id="entity_API"><rect fill="#F1F1F1" height="62.5938" rx="5" ry="5" style="stroke:#181818;stroke-width:0.5;" width="156.5527" x="578.79" y="326.89"/><rect fill="#F1F1F1" height="10" style="stroke:#181818;stroke-width:0.5;" width="15" x="715.3427" y="331.89"/><rect fill="#F1F1F1" height="2" style="stroke:#181818;stroke-width:0.5;" width="4" x="713.3427" y="333.89"/><rect fill="#F1F1F1" height="2" style="stroke:#181818;stroke-width:0.5;" width="4" x="713.3427" y="337.89"/><text fill="#000000" font-family="Arial" font-size="14" lengthAdjust="spacing" textLength="88.4434" x="593.79" y="359.8851">API Gateway</text><text fill="#000000" font-family="Arial" font-size="14" lengthAdjust="spacing" textLength="116.5527" x="593.79" y="376.182">Backend Service</text></g><!--entity AG--><g class="entity" data-entity="AG" data-source-line="15" data-uid="ent0007" id="entity_AG"><rect fill="#F1F1F1" height="46.2969" rx="5" ry="5" style="stroke:#181818;stroke-width:0.5;" width="216.0732" x="549.03" y="466.48"/><rect fill="#F1F1F1" height="10" style="stroke:#181818;stroke-width:0.5;" width="15" x="745.1032" y="471.48"/><rect fill="#F1F1F1" height="2" style="stroke:#181818;stroke-width:0.5;" width="4" x="743.1032" y="473.48"/><rect fill="#F1F1F1" height="2" style="stroke:#181818;stroke-width:0.5;" width="4" x="743.1032" y="477.48"/><text fill="#000000" font-family="Arial" font-size="14" lengthAdjust="spacing" textLength="176.0732" x="564.03" y="499.4751">LLM Agent / Orchestrator</text></g><!--entity LLM--><g class="entity" data-entity="LLM" data-source-line="19" data-uid="ent0009" id="entity_LLM"><rect fill="#F1F1F1" height="62.5938" rx="5" ry="5" style="stroke:#181818;stroke-width:0.5;" width="144.7949" x="185.67" y="773.37"/><rect fill="#F1F1F1" height="10" style="stroke:#181818;stroke-width:0.5;" width="15" x="310.4649" y="778.37"/><rect fill="#F1F1F1" height="2" style="stroke:#181818;stroke-width:0.5;" width="4" x="308.4649" y="780.37"/><rect fill="#F1F1F1" height="2" style="stroke:#181818;stroke-width:0.5;" width="4" x="308.4649" y="784.37"/><text fill="#000000" font-family="Arial" font-size="14" lengthAdjust="spacing" textLength="83.8701" x="200.67" y="806.3651">LLM Service</text><text fill="#000000" font-family="Arial" font-size="14" lengthAdjust="spacing" textLength="104.7949" x="200.67" y="822.662">Local / Remote</text></g><!--entity RET--><g class="entity" data-entity="RET" data-source-line="20" data-uid="ent0010" id="entity_RET"><rect fill="#F1F1F1" height="46.2969" rx="5" ry="5" style="stroke:#181818;stroke-width:0.5;" width="160.9346" x="365.6" y="781.52"/><rect fill="#F1F1F1" height="10" style="stroke:#181818;stroke-width:0.5;" width="15" x="506.5346" y="786.52"/><rect fill="#F1F1F1" height="2" style="stroke:#181818;stroke-width:0.5;" width="4" x="504.5346" y="788.52"/><rect fill="#F1F1F1" height="2" style="stroke:#181818;stroke-width:0.5;" width="4" x="504.5346" y="792.52"/><text fill="#000000" font-family="Arial" font-size="14" lengthAdjust="spacing" textLength="120.9346" x="380.6" y="814.5151">Retriever Service</text></g><!--entity MQ--><g class="entity" data-entity="MQ" data-source-line="24" data-uid="ent0012" id="entity_MQ"><rect fill="#F1F1F1" height="62.5938" rx="5" ry="5" style="stroke:#181818;stroke-width:0.5;" width="122.9746" x="595.58" y="612.78"/><rect fill="#F1F1F1" height="10" style="stroke:#181818;stroke-width:0.5;" width="15" x="698.5546" y="617.78"/><rect fill="#F1F1F1" height="2" style="stroke:#181818;stroke-width:0.5;" width="4" x="696.5546" y="619.78"/><rect fill="#F1F1F1" height="2" style="stroke:#181818;stroke-width:0.5;" width="4" x="696.5546" y="623.78"/><text fill="#000000" font-family="Arial" font-size="14" lengthAdjust="spacing" textLength="82.9746" x="610.58" y="645.7751">Task Queue</text><text fill="#000000" font-family="Arial" font-size="14" lengthAdjust="spacing" textLength="68.5576" x="610.58" y="662.072">RabbitMQ</text></g><!--entity WP--><g class="entity" data-entity="WP" data-source-line="25" data-uid="ent0013" id="entity_WP"><rect fill="#F1F1F1" height="46.2969" rx="5" ry="5" style="stroke:#181818;stroke-width:0.5;" width="124.5537" x="593.79" y="781.52"/><rect fill="#F1F1F1" height="10" style="stroke:#181818;stroke-width:0.5;" width="15" x="698.3437" y="786.52"/><rect fill="#F1F1F1" height="2" style="stroke:#181818;stroke-width:0.5;" width="4" x="696.3437" y="788.52"/><rect fill="#F1F1F1" height="2" style="stroke:#181818;stroke-width:0.5;" width="4" x="696.3437" y="792.52"/><text fill="#000000" font-family="Arial" font-size="14" lengthAdjust="spacing" textLength="84.5537" x="608.79" y="814.5151">Worker Pool</text></g><!--entity VDB--><g class="entity" data-entity="VDB" data-source-line="29" data-uid="ent0015" id="entity_VDB"><rect fill="#F1F1F1" height="62.5938" rx="5" ry="5" style="stroke:#181818;stroke-width:0.5;" width="110.5332" x="402.8" y="935.97"/><rect fill="#F1F1F1" height="10" style="stroke:#181818;stroke-width:0.5;" width="15" x="493.3332" y="940.97"/><rect fill="#F1F1F1" height="2" style="stroke:#181818;stroke-width:0.5;" width="4" x="491.3332" y="942.97"/><rect fill="#F1F1F1" height="2" style="stroke:#181818;stroke-width:0.5;" width="4" x="491.3332" y="946.97"/><text fill="#000000" font-family="Arial" font-size="14" lengthAdjust="spacing" textLength="70.5332" x="417.8" y="968.9651">Vector DB</text><text fill="#000000" font-family="Arial" font-size="14" lengthAdjust="spacing" textLength="39.5322" x="417.8" y="985.262">FAISS</text></g><!--entity IDX--><g class="entity" data-entity="IDX" data-source-line="30" data-uid="ent0016" id="entity_IDX"><rect fill="#F1F1F1" height="46.2969" rx="5" ry="5" style="stroke:#181818;stroke-width:0.5;" width="132.4971" x="234.82" y="944.11"/><rect fill="#F1F1F1" height="10" style="stroke:#181818;stroke-width:0.5;" width="15" x="347.3171" y="949.11"/><rect fill="#F1F1F1" height="2" style="stroke:#181818;stroke-width:0.5;" width="4" x="345.3171" y="951.11"/><rect fill="#F1F1F1" height="2" style="stroke:#181818;stroke-width:0.5;" width="4" x="345.3171" y="955.11"/><text fill="#000000" font-family="Arial" font-size="14" lengthAdjust="spacing" textLength="92.4971" x="249.82" y="977.1051">Elasticsearch</text></g><!--entity DB--><g class="entity" data-entity="DB" data-source-line="34" data-uid="ent0018" id="entity_DB"><rect fill="#F1F1F1" height="62.5938" rx="5" ry="5" style="stroke:#181818;stroke-width:0.5;" width="131.1367" x="1089.5" y="935.97"/><rect fill="#F1F1F1" height="10" style="stroke:#181818;stroke-width:0.5;" width="15" x="1200.6367" y="940.97"/><rect fill="#F1F1F1" height="2" style="stroke:#181818;stroke-width:0.5;" width="4" x="1198.6367" y="942.97"/><rect fill="#F1F1F1" height="2" style="stroke:#181818;stroke-width:0.5;" width="4" x="1198.6367" y="946.97"/><text fill="#000000" font-family="Arial" font-size="14" lengthAdjust="spacing" textLength="91.1367" x="1104.5" y="968.9651">User Storage</text><text fill="#000000" font-family="Arial" font-size="14" lengthAdjust="spacing" textLength="80.7529" x="1104.5" y="985.262">PostgreSQL</text></g><!--entity FS--><g class="entity" data-entity="FS" data-source-line="35" data-uid="ent0019" id="entity_FS"><rect fill="#F1F1F1" height="62.5938" rx="5" ry="5" style="stroke:#181818;stroke-width:0.5;" width="151.5283" x="903.3" y="935.97"/><rect fill="#F1F1F1" height="10" style="stroke:#181818;stroke-width:0.5;" width="15" x="1034.8283" y="940.97"/><rect fill="#F1F1F1" height="2" style="stroke:#181818;stroke-width:0.5;" width="4" x="1032.8283" y="942.97"/><rect fill="#F1F1F1" height="2" style="stroke:#181818;stroke-width:0.5;" width="4" x="1032.8283" y="946.97"/><text fill="#000000" font-family="Arial" font-size="14" lengthAdjust="spacing" textLength="92.6543" x="918.3" y="968.9651">Data Storage</text><text fill="#000000" font-family="Arial" font-size="14" lengthAdjust="spacing" textLength="111.5283" x="918.3" y="985.262">MinIO / Local FS</text></g><!--entity SRC--><g class="entity" data-entity="SRC" data-source-line="39" data-uid="ent0021" id="entity_SRC"><rect fill="#F1F1F1" height="46.2969" rx="5" ry="5" style="stroke:#181818;stroke-width:0.5;" width="143.749" x="795.19" y="781.52"/><rect fill="#F1F1F1" height="10" style="stroke:#181818;stroke-width:0.5;" width="15" x="918.939" y="786.52"/><rect fill="#F1F1F1" height="2" style="stroke:#181818;stroke-width:0.5;" width="4" x="916.939" y="788.52"/><rect fill="#F1F1F1" height="2" style="stroke:#181818;stroke-width:0.5;" width="4" x="916.939" y="792.52"/><text fill="#000000" font-family="Arial" font-size="14" lengthAdjust="spacing" textLength="103.749" x="810.19" y="814.5151">Source Module</text></g><!--entity FUNC--><g class="entity" data-entity="FUNC" data-source-line="40" data-uid="ent0022" id="entity_FUNC"><rect fill="#F1F1F1" height="46.2969" rx="5" ry="5" style="stroke:#181818;stroke-width:0.5;" width="175.4336" x="974.35" y="781.52"/><rect fill="#F1F1F1" height="10" style="stroke:#181818;stroke-width:0.5;" width="15" x="1129.7836" y="786.52"/><rect fill="#F1F1F1" height="2" style="stroke:#181818;stroke-width:0.5;" width="4" x="1127.7836" y="788.52"/><rect fill="#F1F1F1" height="2" style="stroke:#181818;stroke-width:0.5;" width="4" x="1127.7836" y="792.52"/><text fill="#000000" font-family="Arial" font-size="14" lengthAdjust="spacing" textLength="135.4336" x="989.35" y="814.5151">Functional Modules</text></g><!--link U to UI--><g class="link" data-entity-1="U" data-entity-2="UI" data-source-line="44" data-uid="lnk23" id="link_U_UI"><path d="M645.5,87.69 C647.79,108.84 650.5856,134.6747 653.1156,158.0947" fill="none" id="U-to-UI" style="stroke:#181818;stroke-width:1;"/><polygon fill="#181818" points="653.76,164.06,656.7702,154.6824,653.223,159.0889,648.8165,155.5417,653.76,164.06" style="stroke:#181818;stroke-width:1;"/><text fill="#000000" font-family="Arial" font-size="13" lengthAdjust="spacing" textLength="119.2217" x="651.48" y="130.3569">HTTP / WebSocket</text></g><!--link UI to API--><g class="link" data-entity-1="UI" data-entity-2="API" data-source-line="45" data-uid="lnk24" id="link_UI_API"><path d="M657.06,227.18 C657.06,255.66 657.06,291.91 657.06,320.44" fill="none" id="UI-to-API" style="stroke:#181818;stroke-width:1;"/><polygon fill="#181818" points="657.06,326.44,661.06,317.44,657.06,321.44,653.06,317.44,657.06,326.44" style="stroke:#181818;stroke-width:1;"/><text fill="#000000" font-family="Arial" font-size="13" lengthAdjust="spacing" textLength="55.7388" x="658.06" y="271.9569">API Calls</text></g><!--link API to AG--><g class="link" data-entity-1="API" data-entity-2="AG" data-source-line="46" data-uid="lnk25" id="link_API_AG"><path d="M657.06,389.86 C657.06,413.34 657.06,439.17 657.06,460.27" fill="none" id="API-to-AG" style="stroke:#181818;stroke-width:1;"/><polygon fill="#181818" points="657.06,466.27,661.06,457.27,657.06,461.27,653.06,457.27,657.06,466.27" style="stroke:#181818;stroke-width:1;"/><text fill="#000000" font-family="Arial" font-size="13" lengthAdjust="spacing" textLength="53.3901" x="658.06" y="432.5469">Request</text></g><!--link AG to LLM--><g class="link" data-entity-1="AG" data-entity-2="LLM" data-source-line="48" data-uid="lnk26" id="link_AG_LLM"><path d="M548.55,496.87 C487.34,505.53 412.96,525.29 361.06,569.78 C298.24,623.63 273.3939,717.2543 263.9339,767.3243" fill="none" id="AG-to-LLM" style="stroke:#181818;stroke-width:1;"/><polygon fill="#181818" points="262.82,773.22,268.4213,765.1191,263.7483,768.3069,260.5604,763.6339,262.82,773.22" style="stroke:#181818;stroke-width:1;"/><text fill="#000000" font-family="Arial" font-size="13" lengthAdjust="spacing" textLength="60.874" x="362.06" y="648.6469">LLM Calls</text></g><!--link AG to RET--><g class="link" data-entity-1="AG" data-entity-2="RET" data-source-line="49" data-uid="lnk27" id="link_AG_RET"><path d="M548.74,511.53 C516.16,523.23 483.63,541.45 463.06,569.78 C416.42,634.02 429.7207,730.2315 439.3007,775.2315" fill="none" id="AG-to-RET" style="stroke:#181818;stroke-width:1;"/><polygon fill="#181818" points="440.55,781.1,442.5883,771.4644,439.5089,776.2096,434.7637,773.1302,440.55,781.1" style="stroke:#181818;stroke-width:1;"/><text fill="#000000" font-family="Arial" font-size="13" lengthAdjust="spacing" textLength="113.6421" x="464.06" y="648.6469">Context Retrieval</text></g><!--link AG to SRC--><g class="link" data-entity-1="AG" data-entity-2="SRC" data-source-line="50" data-uid="lnk28" id="link_AG_SRC"><path d="M705.25,513.03 C719.7,521.45 734.72,532.12 746.06,544.78 C811.63,617.93 846.5691,727.012 859.7591,775.302" fill="none" id="AG-to-SRC" style="stroke:#181818;stroke-width:1;"/><polygon fill="#181818" points="861.34,781.09,862.8272,771.3541,860.0226,776.2667,855.1099,773.462,861.34,781.09" style="stroke:#181818;stroke-width:1;"/><text fill="#000000" font-family="Arial" font-size="13" lengthAdjust="spacing" textLength="71.1318" x="824.66" y="648.6469">Fetch Data</text></g><!--link AG to FUNC--><g class="link" data-entity-1="AG" data-entity-2="FUNC" data-source-line="51" data-uid="lnk29" id="link_AG_FUNC"><path d="M765.47,508.65 C811.83,520.34 864.5,539.31 905.06,569.78 C982.09,627.65 1031.2028,729.4339 1050.8228,775.8239" fill="none" id="AG-to-FUNC" style="stroke:#181818;stroke-width:1;"/><polygon fill="#181818" points="1053.16,781.35,1053.3383,771.5028,1051.2124,776.7449,1045.9702,774.619,1053.16,781.35" style="stroke:#181818;stroke-width:1;"/><text fill="#000000" font-family="Arial" font-size="13" lengthAdjust="spacing" textLength="106.6406" x="998.07" y="648.6469">Execute Feature</text></g><!--link AG to MQ--><g class="link" data-entity-1="AG" data-entity-2="MQ" data-source-line="52" data-uid="lnk30" id="link_AG_MQ"><path d="M657.06,513.12 C657.06,539.38 657.06,576.94 657.06,606.31" fill="none" id="AG-to-MQ" style="stroke:#181818;stroke-width:1;"/><polygon fill="#181818" points="657.06,612.31,661.06,603.31,657.06,607.31,653.06,603.31,657.06,612.31" style="stroke:#181818;stroke-width:1;"/><text fill="#000000" font-family="Arial" font-size="13" lengthAdjust="spacing" textLength="79.8599" x="658.06" y="557.8469">Async Tasks</text></g><!--link RET to VDB--><g class="link" data-entity-1="RET" data-entity-2="VDB" data-source-line="54" data-uid="lnk31" id="link_RET_VDB"><path d="M444.72,828.15 C444.08,839.99 443.38,854.76 443.06,867.97 C442.88,875.52 442.38,877.44 443.06,884.97 C444.61,901.83 446.699,914.5435 449.819,929.6835" fill="none" id="RET-to-VDB" style="stroke:#181818;stroke-width:1;"/><polygon fill="#181818" points="451.03,935.56,453.1312,925.9379,450.0208,930.6629,445.2958,927.5526,451.03,935.56" style="stroke:#181818;stroke-width:1;"/><text fill="#000000" font-family="Arial" font-size="13" lengthAdjust="spacing" textLength="91.5142" x="444.06" y="881.0369">Vector Search</text></g><!--link RET to IDX--><g class="link" data-entity-1="RET" data-entity-2="IDX" data-source-line="55" data-uid="lnk32" id="link_RET_IDX"><path d="M414.64,828.17 C396.2,840.04 371.89,853.45 348.06,859.97 C332.73,864.16 73.14,856.57 62.06,867.97 C6,925.62 139.6568,950.0669 228.4168,959.9369" fill="none" id="RET-to-IDX" style="stroke:#181818;stroke-width:1;"/><polygon fill="#181818" points="234.38,960.6,225.8772,955.6298,229.4106,960.0474,224.9931,963.5808,234.38,960.6" style="stroke:#181818;stroke-width:1;"/><text fill="#000000" font-family="Arial" font-size="13" lengthAdjust="spacing" textLength="77.8096" x="63.06" y="881.0369">Text Search</text></g><!--link SRC to FS--><g class="link" data-entity-1="SRC" data-entity-2="FS" data-source-line="57" data-uid="lnk33" id="link_SRC_FS"><path d="M900.07,828.22 C913.88,838.97 929.21,852.79 940.06,867.97 C954.7,888.42 963.0806,909.4037 969.3406,929.8137" fill="none" id="SRC-to-FS" style="stroke:#181818;stroke-width:1;"/><polygon fill="#181818" points="971.1,935.55,972.2851,925.7727,969.6339,930.7698,964.6368,928.1185,971.1,935.55" style="stroke:#181818;stroke-width:1;"/><text fill="#000000" font-family="Arial" font-size="13" lengthAdjust="spacing" textLength="68.25" x="950.24" y="881.0369">Store Files</text></g><!--link SRC to VDB--><g class="link" data-entity-1="SRC" data-entity-2="VDB" data-source-line="58" data-uid="lnk34" id="link_SRC_VDB"><path d="M826.91,828.27 C806.03,839.21 779.76,851.72 755.06,859.97 C737.45,865.84 731.56,861.77 714.06,867.97 C698.88,873.34 696.78,878.43 682.06,884.97 C625.92,909.92 565.2345,931.3897 519.3845,946.6097" fill="none" id="SRC-to-VDB" style="stroke:#181818;stroke-width:1;"/><polygon fill="#181818" points="513.69,948.5,523.4919,949.4609,518.4354,946.9248,520.9715,941.8683,513.69,948.5" style="stroke:#181818;stroke-width:1;"/><text fill="#000000" font-family="Arial" font-size="13" lengthAdjust="spacing" textLength="91.8506" x="715.06" y="881.0369">Index Content</text></g><!--link SRC to IDX--><g class="link" data-entity-1="SRC" data-entity-2="IDX" data-source-line="59" data-uid="lnk35" id="link_SRC_IDX"><path d="M830.74,828.26 C809.52,840.15 781.75,853.57 755.06,859.97 C732.75,865.32 361.04,855.06 342.06,867.97 C316.99,885.03 308.1817,914.6476 304.3917,937.9876" fill="none" id="SRC-to-IDX" style="stroke:#181818;stroke-width:1;"/><polygon fill="#181818" points="303.43,943.91,308.8208,935.6675,304.2314,938.9746,300.9243,934.3852,303.43,943.91" style="stroke:#181818;stroke-width:1;"/><text fill="#000000" font-family="Arial" font-size="13" lengthAdjust="spacing" textLength="91.8506" x="343.06" y="881.0369">Index Content</text></g><!--link FUNC to DB--><g class="link" data-entity-1="FUNC" data-entity-2="DB" data-source-line="61" data-uid="lnk36" id="link_FUNC_DB"><path d="M1150.24,813.9 C1221.28,822.57 1313.01,839.08 1336.06,867.97 C1372.93,914.15 1292.6537,940.4454 1226.9437,954.1454" fill="none" id="FUNC-to-DB" style="stroke:#181818;stroke-width:1;"/><polygon fill="#181818" points="1221.07,955.37,1230.697,957.4489,1225.9647,954.3495,1229.0641,949.6173,1221.07,955.37" style="stroke:#181818;stroke-width:1;"/><text fill="#000000" font-family="Arial" font-size="13" lengthAdjust="spacing" textLength="83.5669" x="1345.37" y="881.0369">Save Results</text></g><!--link FUNC to DB--><g class="link" data-entity-1="FUNC" data-entity-2="DB" data-source-line="62" data-uid="lnk37" id="link_FUNC_DB"><path d="M1144.09,828.15 C1163.01,837.35 1180.86,850.18 1192.06,867.97 C1205.28,888.95 1197.3422,910.3904 1183.8722,930.5604" fill="none" id="FUNC-to-DB-1" style="stroke:#181818;stroke-width:1;"/><polygon fill="#181818" points="1180.54,935.55,1188.8647,930.287,1183.3168,931.392,1182.2119,925.8441,1180.54,935.55" style="stroke:#181818;stroke-width:1;"/><text fill="#000000" font-family="Arial" font-size="13" lengthAdjust="spacing" textLength="102.1846" x="1198.53" y="881.0369">Read User Data</text></g><!--link MQ to WP--><g class="link" data-entity-1="MQ" data-entity-2="WP" data-source-line="64" data-uid="lnk38" id="link_MQ_WP"><path d="M656.87,675.65 C656.68,706.62 656.4191,747.7601 656.2391,775.3701" fill="none" id="MQ-to-WP" style="stroke:#181818;stroke-width:1;"/><polygon fill="#181818" points="656.2,781.37,660.2586,772.3963,656.2326,776.3701,652.2588,772.3441,656.2,781.37" style="stroke:#181818;stroke-width:1;"/><text fill="#000000" font-family="Arial" font-size="13" lengthAdjust="spacing" textLength="108.7861" x="657.68" y="718.4369">Background Jobs</text></g><!--link WP to FS--><g class="link" data-entity-1="WP" data-entity-2="FS" data-source-line="65" data-uid="lnk39" id="link_WP_FS"><path d="M701.36,828.23 C724.24,838.96 752.67,851.3 779.06,859.97 C794.64,865.08 799.84,861.9 815.06,867.97 C827.17,872.79 881.005,905.5174 924.775,932.5474" fill="none" id="WP-to-FS" style="stroke:#181818;stroke-width:1;"/><polygon fill="#181818" points="929.88,935.7,924.3242,927.5678,925.6258,933.0728,920.1207,934.3745,929.88,935.7" style="stroke:#181818;stroke-width:1;"/><text fill="#000000" font-family="Arial" font-size="13" lengthAdjust="spacing" textLength="83.4336" x="844.31" y="881.0369">Process Files</text></g><!--link WP to VDB--><g class="link" data-entity-1="WP" data-entity-2="VDB" data-source-line="66" data-uid="lnk40" id="link_WP_VDB"><path d="M626.62,828.22 C611.43,839.96 592.65,854.6 576.06,867.97 C548.34,890.3 522.0298,912.2056 498.8098,931.7556" fill="none" id="WP-to-VDB" style="stroke:#181818;stroke-width:1;"/><polygon fill="#181818" points="494.22,935.62,503.681,932.8833,498.0449,932.3997,498.5285,926.7635,494.22,935.62" style="stroke:#181818;stroke-width:1;"/><text fill="#000000" font-family="Arial" font-size="13" lengthAdjust="spacing" textLength="100.4199" x="577.06" y="881.0369">Update Vectors</text></g><!--link WP to IDX--><g class="link" data-entity-1="WP" data-entity-2="IDX" data-source-line="67" data-uid="lnk41" id="link_WP_IDX"><path d="M619.03,828.23 C597.42,840.12 569.15,853.53 542.06,859.97 C522.55,864.6 195.09,853.63 181.06,867.97 C153.19,896.46 192.1778,922.4216 234.6478,941.3116" fill="none" id="WP-to-IDX" style="stroke:#181818;stroke-width:1;"/><polygon fill="#181818" points="240.13,943.75,233.5323,936.4376,235.5615,941.718,230.2811,943.7472,240.13,943.75" style="stroke:#181818;stroke-width:1;"/><text fill="#000000" font-family="Arial" font-size="13" lengthAdjust="spacing" textLength="87.2295" x="182.06" y="881.0369">Update Index</text></g><!--link WP to DB--><g class="link" data-entity-1="WP" data-entity-2="DB" data-source-line="68" data-uid="lnk42" id="link_WP_DB"><path d="M696.54,828.26 C719.9,840.07 750.27,853.41 779.06,859.97 C832.83,872.21 973.92,853.28 1027.06,867.97 C1067.84,879.24 1100.882,907.094 1124.542,931.594" fill="none" id="WP-to-DB" style="stroke:#181818;stroke-width:1;"/><polygon fill="#181818" points="1128.71,935.91,1125.3353,926.6574,1125.2367,932.3133,1119.5807,932.2147,1128.71,935.91" style="stroke:#181818;stroke-width:1;"/><text fill="#000000" font-family="Arial" font-size="13" lengthAdjust="spacing" textLength="100.5977" x="1064.12" y="881.0369">Write Metadata</text></g><!--SRC=[TLJRRjj647tdLspTXpu59QsRPQG6T25T5P8ZYP9LeEh3cjp8X6dIsLqw3ee2kRmKS82qGO46AD2Y_O6wHOmuJTt-mkgFEdkHBD4c7mXfpl2ScTcpyr587aO9GKEtDMhixNPT5CIOCOiTHSa9flWOGGBEOkwb2T_3nmGrQ8JZ5PocMHAsKfeGYXnx1L14JHmSpKnAd5BqiQUUMsaf3GarARPwLbBO8GxJnr4oGmznp8XbdG0hdX6q8LwBQt4v_mxUL-8zch-OFnN_Yh_4fRYUlzn0trW8VIL-XT27-KlnJa4Ny-S0m_-l4MPeB3Ccv02DEzF4vvJWupZYoAFGBab2dTEnlbtL_0qKdmBJrVmPo9nBtMVY0v2_DugDVWVjOauUuoVJH4u0c91Fw6aK4CK82JAls-sXnema77sA7j3Wa31ECK-fpjbTL_r5ggaEfEQbr5oMCJytofBH24sJRXhW6AY7v3ZbMXXmcJOad4Ra54vijQgXErgJl3axDCBiY6seqskxDQqbOsYGaGoaXlZW8EAzWUBf3THGKte40lqqZLLqqb_lvmTn8TxDpv5u2uVn2YrBaYebj-9LjCe-2M0YgDsS9bwZu_kAQx_Tb9WBrk5Hm0Y6uIcWq_voNUL7KBas4nF_tMc4Lw3eRdaLjwuLnqpE1KI1OPhqKyPdbFY3hXBGmctCyKrABqew3s3EUjwUBj7prmlvNlm9v_GSJkn2_0tAfgH_e9ItynTWdojpX7wQqO2WNXfciJuNVzYIW9Sb0O_I13GqoBJGUAybfJv1dzrw47ZrjVX3_2JUt85QOtJltWxO6ssZpqUZFhG0Dy5FmQ_SWgW4fPMtrRk5uvXPyfUAxq9uI1vbu5dBWdyoADsthTucMOV1Ln1koHjrnXS73Jl4mD0Um1xXmI6IWrt4PMC0k6Sao3Y11CmpIXPeRo3hOa-IG9lJigICHC0S01dV-CeRImpy0TX8rc4GIyehEHyGUQOW5S5mbu3cwoGXETDD97o9QRvrp5A5IrHzwEDJMA-4mGvbEMX8S8YKtLJV5lGaiKaVi9NBzqLwm2m8BgliqpGWZ9aw3QBB79-4i7XCzqjCbsamLUq2KHzDQ0Jn7k4uL7KKMUbtyKRyVBULSljSMJct- -_VR-pkxC1TSxoAvqhyPkalCDkfrEhoYY5q5m5OIsR15YgvTfx1W6wrujXs8GKuGL6e5PEdC62vuPItMeKKSFYAml6st7gUme2bKhNkk8KKqWUgMDYcNZNFiK3BbSrQexYLti0CezugvoaCrcpPc-r2Wac_cC1WbPhdr0e9satLXEtLl4QUG6EsNRMhvU8v-8PWqtDkJS7N1ELskNW6-wO4jR_p30PqcXLtivW2BeUUbLjtQtaA0pQzKjMMQ_P_]--></g></svg>